<svg width="45" height="45" viewBox="0 0 45 45" fill="none" xmlns="http://www.w3.org/2000/svg">
<rect width="45" height="45" fill="white"/>
<path d="M5.9 3C5.3 3 5 3.3 5 3.9V14.088C5 14.688 5.3 14.988 5.9 14.988H7.412V34.572C7.412 35.124 7.604 35.604 7.988 36.012L14 41.988C14.408 42.396 14.888 42.6 15.44 42.6H24.008C24.608 42.6 24.908 42.3 24.908 41.7V35.148C24.908 34.668 24.788 34.308 24.548 34.068L21.02 30.54C20.732 30.252 20.588 29.868 20.588 29.388V14.988H24.08C24.68 14.988 24.98 14.688 24.98 14.088V3.9C24.98 3.3 24.68 3 24.08 3H5.9Z" fill="#0E0E0E"/>
<path d="M27.2373 3.9C27.2373 3.3 27.5373 3 28.1373 3H39.5133C40.1133 3 40.4133 3.3 40.4133 3.9V41.7C40.4133 42.3 40.1133 42.6 39.5133 42.6H28.1373C27.5373 42.6 27.2373 42.3 27.2373 41.7V3.9Z" fill="#0E0E0E"/>
</svg>
