<svg width="101" height="61" viewBox="0 0 101 61" fill="none" xmlns="http://www.w3.org/2000/svg">
<path d="M56.4999 0L68.6471 12.1472C68.9205 12.4205 69.3637 12.4205 69.6371 12.1472L81.7842 0H72.7842L69.637 3.14716C69.3637 3.42053 68.9205 3.42053 68.6471 3.14716L65.4999 0H56.4999Z" fill="#78ADEE"/>
<path d="M81.7842 50.3522L69.637 38.205C69.3637 37.9317 68.9205 37.9317 68.6471 38.205L56.4999 50.3522L65.4999 50.3522L68.6471 47.205C68.9205 46.9317 69.3637 46.9317 69.637 47.205L72.7842 50.3522L81.7842 50.3522Z" fill="#78ADEE"/>
<path d="M0 6.9C0 6.3 0.3 6 0.9 6H19.08C19.68 6 19.98 6.3 19.98 6.9V17.088C19.98 17.688 19.68 17.988 19.08 17.988H15.588V32.388C15.588 32.868 15.732 33.252 16.02 33.54L19.548 37.068C19.788 37.308 19.908 37.668 19.908 38.148V44.7C19.908 45.3 19.608 45.6 19.008 45.6H10.44C9.888 45.6 9.408 45.396 9 44.988L2.988 39.012C2.604 38.604 2.412 38.124 2.412 37.572V17.988H0.9C0.3 17.988 0 17.688 0 17.088V6.9Z" fill="#0E0E0E"/>
<path d="M58.5692 6C58.6135 6 58.6573 6.00131 58.7006 6.00394L67.7795 15.0828C67.7833 15.1382 67.7852 15.1946 67.7852 15.252V36.6734L58.8586 45.6H55.5092C54.9092 45.6 54.6092 45.3 54.6092 44.7V20.688C54.6092 19.704 54.1052 19.212 53.0972 19.212H51.5852V44.7C51.5852 45.3 51.2852 45.6 50.6852 45.6H39.3092C38.7092 45.6 38.4092 45.3 38.4092 44.7V6.9C38.4092 6.3 38.7092 6 39.3092 6H58.5692Z" fill="#0E0E0E"/>
<path d="M80.0586 45.6H83.7832C84.3353 45.6 84.8153 45.396 85.2233 44.988L87.0232 43.188V45.6C87.0232 46.032 86.8792 46.416 86.5912 46.752L81.2633 52.08C81.0233 52.296 80.9033 52.656 80.9033 53.16V59.712C80.9033 60.312 81.2033 60.612 81.8033 60.612H90.3713C90.6833 60.612 90.9473 60.564 91.1633 60.468C91.3793 60.372 91.5953 60.216 91.8112 60L99.6233 52.188C100.007 51.804 100.199 51.324 100.199 50.748V6.9C100.199 6.3 99.8993 6 99.2993 6H87.9232C87.3232 6 87.0232 6.3 87.0232 6.9V33.612H85.5113C85.0312 33.612 84.6592 33.48 84.3952 33.216C84.1312 32.952 83.9993 32.58 83.9993 32.1V6.9C83.9993 6.3 83.6992 6 83.0993 6H79.9099L70.8232 15.0866V36.348C70.8232 36.3536 70.8233 36.3591 70.8233 36.3647L80.0586 45.6Z" fill="#0E0E0E"/>
<path d="M23.1373 6C22.5373 6 22.2373 6.3 22.2373 6.9V44.7C22.2373 45.3 22.5373 45.6 23.1373 45.6H34.5133C35.1133 45.6 35.4133 45.3 35.4133 44.7V6.9C35.4133 6.3 35.1133 6 34.5133 6H23.1373Z" fill="#0E0E0E"/>
</svg>
