<svg width="101" height="66" viewBox="0 0 101 66" fill="none" xmlns="http://www.w3.org/2000/svg">
<path d="M58.7006 11.0039C58.6573 11.0013 58.6135 11 58.5692 11H39.3092C38.7092 11 38.4092 11.3 38.4092 11.9V49.7C38.4092 50.3 38.7092 50.6 39.3092 50.6H50.6852C51.2852 50.6 51.5852 50.3 51.5852 49.7V24.212H53.0972C54.1052 24.212 54.6092 24.704 54.6092 25.688V49.7C54.6092 50.3 54.9092 50.6 55.5092 50.6H66.8852C67.4852 50.6 67.7852 50.3 67.7852 49.7V20.252C67.7852 20.1946 67.7833 20.1382 67.7795 20.0828L58.7006 11.0039Z" fill="#0E0E0E"/>
<path d="M70.8232 20.0866V41.348C70.8232 41.924 71.0152 42.404 71.3992 42.788L78.5993 49.988C79.0072 50.396 79.4873 50.6 80.0393 50.6H83.7832C84.3353 50.6 84.8153 50.396 85.2233 49.988L87.0232 48.188V50.6C87.0232 51.032 86.8792 51.416 86.5912 51.752L81.2633 57.08C81.0233 57.296 80.9033 57.656 80.9033 58.16V64.712C80.9033 65.312 81.2033 65.612 81.8033 65.612H90.3713C90.6833 65.612 90.9473 65.564 91.1633 65.468C91.3793 65.372 91.5953 65.216 91.8112 65L99.6233 57.188C100.007 56.804 100.199 56.324 100.199 55.748V11.9C100.199 11.3 99.8993 11 99.2993 11H87.9232C87.3232 11 87.0232 11.3 87.0232 11.9V38.612H85.5113C85.0312 38.612 84.6592 38.48 84.3952 38.216C84.1312 37.952 83.9993 37.58 83.9993 37.1V11.9C83.9993 11.3 83.6992 11 83.0993 11H79.9099L70.8232 20.0866Z" fill="#0E0E0E"/>
<path d="M0 11.9C0 11.3 0.3 11 0.9 11H19.08C19.68 11 19.98 11.3 19.98 11.9V22.088C19.98 22.688 19.68 22.988 19.08 22.988H15.588V37.388C15.588 37.868 15.732 38.252 16.02 38.54L19.548 42.068C19.788 42.308 19.908 42.668 19.908 43.148V49.7C19.908 50.3 19.608 50.6 19.008 50.6H10.44C9.888 50.6 9.408 50.396 9 49.988L2.988 44.012C2.604 43.604 2.412 43.124 2.412 42.572V22.988H0.9C0.3 22.988 0 22.688 0 22.088V11.9Z" fill="#0E0E0E"/>
<path d="M22.2373 11.9C22.2373 11.3 22.5373 11 23.1373 11H34.5133C35.1133 11 35.4133 11.3 35.4133 11.9V49.7C35.4133 50.3 35.1133 50.6 34.5133 50.6H23.1373C22.5373 50.6 22.2373 50.3 22.2373 49.7V11.9Z" fill="#0E0E0E"/>
<path d="M59.5 0.642148L55.4949 4.64717C55.2216 4.92054 55.2216 5.36375 55.4949 5.63712L68.6471 18.7893C68.9205 19.0627 69.3637 19.0627 69.6371 18.7893L82.7893 5.63712C83.0626 5.36375 83.0626 4.92054 82.7893 4.64717L78.7842 0.642136L69.6371 9.7893C69.3637 10.0627 68.9205 10.0627 68.6471 9.7893L59.5 0.642148Z" fill="#78ADEE"/>
</svg>
